<svg xmlns="http://www.w3.org/2000/svg" width="430" height="430" style="width:100%;height:100%;transform:translate3d(0,0,0);content-visibility:visible" viewBox="0 0 430 430"><defs><clipPath id="i"><path d="M0 0h430v430H0z"/></clipPath><clipPath id="w"><path d="M0 0h430v430H0z"/></clipPath><clipPath id="x"><path d="M0 0h430v430H0z"/></clipPath><clipPath id="t"><path d="M0 0h430v430H0z"/></clipPath><clipPath id="u"><path d="M0 0h430v430H0z"/></clipPath><clipPath id="p"><path d="M0 0h430v430H0z"/></clipPath><clipPath id="r"><path d="M0 0h430v430H0z"/></clipPath><clipPath id="q"><path d="M0 0h430v430H0z"/></clipPath><clipPath id="j"><path d="M0 0h430v430H0z"/></clipPath><clipPath id="n"><path d="M0 0h430v430H0z"/></clipPath><clipPath id="o"><path fill="#fff"/></clipPath><clipPath id="k"><path d="M0 0h430v430H0z"/></clipPath><mask id="y" mask-type="alpha"><use xmlns:ns1="http://www.w3.org/1999/xlink" ns1:href="#a"/></mask><mask id="v" mask-type="alpha"><use xmlns:ns2="http://www.w3.org/1999/xlink" ns2:href="#b"/></mask><mask id="s" mask-type="alpha"><g filter="url(#c)"><path fill="#fff" d="M0 0h430v430H0z" opacity="0"/><use xmlns:ns3="http://www.w3.org/1999/xlink" ns3:href="#d"/></g></mask><mask id="m" mask-type="alpha"><g filter="url(#e)"><path fill="#fff" d="M0 0h430v430H0z" opacity="0"/><use xmlns:ns4="http://www.w3.org/1999/xlink" ns4:href="#f"/></g></mask><mask id="l" mask-type="alpha"><g filter="url(#g)"><path fill="#fff" d="M0 0h430v430H0z" opacity="0"/><use xmlns:ns5="http://www.w3.org/1999/xlink" ns5:href="#h"/></g></mask><filter id="c" width="100%" height="100%" x="0%" y="0%" filterUnits="objectBoundingBox"><feComponentTransfer in="SourceGraphic"><feFuncA tableValues="1.0 0.0" type="table"/></feComponentTransfer></filter><filter id="e" width="100%" height="100%" x="0%" y="0%" filterUnits="objectBoundingBox"><feComponentTransfer in="SourceGraphic"><feFuncA tableValues="1.0 0.0" type="table"/></feComponentTransfer></filter><filter id="g" width="100%" height="100%" x="0%" y="0%" filterUnits="objectBoundingBox"><feComponentTransfer in="SourceGraphic"><feFuncA tableValues="1.0 0.0" type="table"/></feComponentTransfer></filter><path id="a" style="display:none"/><path id="b" style="display:none"/><path id="d" fill="red" d="M26.69-186.57h.06v106.81h106.68v-.06L26.69-186.57z" style="display:block" transform="translate(214 214.76)"/><g id="f" style="display:none"><path fill-opacity="0"/><path/></g><g id="h" style="display:none"><path fill-opacity="0"/><path/></g></defs><g clip-path="url(#i)"><g clip-path="url(#j)" style="display:none"><g fill="none" clip-path="url(#k)" mask="url(#l)" style="display:none"><g style="display:none"><path class="primary"/><path class="primary"/><path class="primary"/></g><g style="display:none"><path class="secondary"/><path class="secondary"/></g></g><g fill="none" mask="url(#m)" style="display:none"><path class="primary"/><path class="primary"/><path class="primary"/></g><g clip-path="url(#n)" style="display:none"><g fill="none" clip-path="url(#o)"><g style="display:none"><path class="primary"/><path class="primary"/><path class="primary"/></g><g style="display:none"><path class="secondary"/><path class="secondary"/></g></g></g><path fill="none" class="primary" style="display:none"/><g fill="none" style="display:none"><path class="primary"/><path class="primary"/></g><path fill="none" class="primary" style="display:none"/></g><g fill="none" clip-path="url(#p)" style="display:block"><g clip-path="url(#q)" style="display:none"><g style="display:none"><path class="primary"/><path class="primary"/><path class="primary"/></g><g style="display:none"><path class="secondary"/><path class="secondary"/></g></g><g stroke-linecap="round" stroke-linejoin="round" stroke-width="12" clip-path="url(#r)" mask="url(#s)" style="display:block"><path stroke="#121331" d="M295.06 295.06h-40.03m-26.687 0h-93.402m160.119 53.373H134.94" class="primary" style="display:block"/><path stroke="#08A88A" d="M200.173 240.609s-6.094 2.793-17.215 1.589c-11.15-1.207-20.245-11.62-20.245-22.835v-8.865c0-12.951 10.6-23.264 23.548-22.997 8.367.173 12.912 1.735 12.912 1.735m68.114-.925-20.918 53.374-22.19-53.374" class="secondary" style="display:block"/></g><g stroke="#121331" stroke-linecap="round" stroke-linejoin="round" stroke-width="12" style="display:block"><path d="M241.69 28.19H81.57v373.14h266.86V134.94L241.69 28.19z" class="primary"/><path d="M241.687 28.194V134.94h106.746" class="primary"/></g><path stroke="#121331" stroke-linecap="round" stroke-linejoin="round" stroke-width="12" d="M-53.373-53.373s3.306 2.315 53 52.746c50.313 51.06 53.746 54 53.746 54" class="primary" style="display:block" transform="translate(295.06 81.567)"/></g><g fill="none" clip-path="url(#t)" style="display:none"><g clip-path="url(#u)" mask="url(#v)" style="display:none"><g style="display:none"><path class="primary"/><path class="primary"/><path class="primary"/></g><g style="display:none"><path class="secondary"/><path class="secondary"/></g></g><path class="primary" style="display:none"/><g style="display:none"><path class="primary"/><path class="primary"/></g><path class="primary" style="display:none"/></g><g fill="none" clip-path="url(#w)" style="display:none"><g clip-path="url(#x)" mask="url(#y)" style="display:none"><g style="display:none"><path class="primary"/><path class="primary"/><path class="primary"/></g><g style="display:none"><path class="secondary"/><path class="secondary"/></g></g><path class="primary" style="display:none"/><path class="primary" style="display:none"/><g style="display:none"><path class="primary"/><path class="primary"/></g></g></g></svg>